<svg width="1472" height="254" viewBox="0 0 1472 254" fill="none" xmlns="http://www.w3.org/2000/svg">
<path d="M223.262 74.468C244.963 74.468 262.178 81.041 274.907 94.187C287.844 107.333 294.313 125.591 294.313 148.962V251H241.103V156.161C241.103 144.893 238.077 136.233 232.026 130.182C226.183 123.922 218.045 120.792 207.612 120.792C197.179 120.792 188.936 123.922 182.885 130.182C177.042 136.233 174.121 144.893 174.121 156.161V251H120.911V156.161C120.911 144.893 117.885 136.233 111.834 130.182C105.991 123.922 97.8533 120.792 87.42 120.792C76.9867 120.792 68.7443 123.922 62.693 130.182C56.8503 136.233 53.929 144.893 53.929 156.161V251H0.406001V76.346H53.929V98.256C59.3543 90.9527 66.449 85.2143 75.213 81.041C83.977 76.659 93.8887 74.468 104.948 74.468C118.094 74.468 129.779 77.285 140.004 82.919C150.437 88.553 158.575 96.5867 164.418 107.02C170.469 97.4213 178.712 89.5963 189.145 83.545C199.578 77.4937 210.951 74.468 223.262 74.468ZM321.104 163.36C321.104 145.415 324.443 129.66 331.12 116.097C338.006 102.534 347.292 92.1003 358.977 84.797C370.662 77.4937 383.704 73.842 398.102 73.842C410.413 73.842 421.16 76.346 430.341 81.354C439.731 86.362 446.93 92.935 451.938 101.073V76.346H505.461V251H451.938V226.273C446.721 234.411 439.418 240.984 430.028 245.992C420.847 251 410.1 253.504 397.789 253.504C383.6 253.504 370.662 249.852 358.977 242.549C347.292 235.037 338.006 224.499 331.12 210.936C324.443 197.164 321.104 181.305 321.104 163.36ZM451.938 163.673C451.938 150.318 448.182 139.781 440.67 132.06C433.367 124.339 424.394 120.479 413.752 120.479C403.11 120.479 394.033 124.339 386.521 132.06C379.218 139.572 375.566 150.005 375.566 163.36C375.566 176.715 379.218 187.357 386.521 195.286C394.033 203.007 403.11 206.867 413.752 206.867C424.394 206.867 433.367 203.007 440.67 195.286C448.182 187.565 451.938 177.028 451.938 163.673ZM597.705 19.38V251H544.182V19.38H597.705ZM625.851 163.36C625.851 145.415 629.19 129.66 635.867 116.097C642.753 102.534 652.039 92.1003 663.724 84.797C675.409 77.4937 688.451 73.842 702.849 73.842C714.326 73.842 724.759 76.2417 734.149 81.041C743.748 85.8403 751.26 92.309 756.685 100.447V19.38H810.208V251H756.685V225.96C751.677 234.307 744.478 240.984 735.088 245.992C725.907 251 715.16 253.504 702.849 253.504C688.451 253.504 675.409 249.852 663.724 242.549C652.039 235.037 642.753 224.499 635.867 210.936C629.19 197.164 625.851 181.305 625.851 163.36ZM756.685 163.673C756.685 150.318 752.929 139.781 745.417 132.06C738.114 124.339 729.141 120.479 718.499 120.479C707.857 120.479 698.78 124.339 691.268 132.06C683.965 139.572 680.313 150.005 680.313 163.36C680.313 176.715 683.965 187.357 691.268 195.286C698.78 203.007 707.857 206.867 718.499 206.867C729.141 206.867 738.114 203.007 745.417 195.286C752.929 187.565 756.685 177.028 756.685 163.673ZM875.847 58.192C866.457 58.192 858.737 55.4793 852.685 50.054C846.843 44.42 843.921 37.534 843.921 29.396C843.921 21.0493 846.843 14.1633 852.685 8.73798C858.737 3.10398 866.457 0.286982 875.847 0.286982C885.029 0.286982 892.541 3.10398 898.383 8.73798C904.435 14.1633 907.46 21.0493 907.46 29.396C907.46 37.534 904.435 44.42 898.383 50.054C892.541 55.4793 885.029 58.192 875.847 58.192ZM902.452 76.346V251H848.929V76.346H902.452ZM1019.8 200.92L1057.68 76.346H1114.64L1052.67 251H986.625L924.651 76.346H981.93L1019.8 200.92ZM1301.81 160.856C1301.81 165.864 1301.5 171.081 1300.87 176.506H1179.74C1180.57 187.357 1184.02 195.703 1190.07 201.546C1196.33 207.18 1203.94 209.997 1212.92 209.997C1226.27 209.997 1235.56 204.363 1240.77 193.095H1297.74C1294.82 204.572 1289.5 214.901 1281.78 224.082C1274.26 233.263 1264.77 240.462 1253.29 245.679C1241.82 250.896 1228.98 253.504 1214.79 253.504C1197.68 253.504 1182.45 249.852 1169.1 242.549C1155.74 235.246 1145.31 224.812 1137.8 211.249C1130.28 197.686 1126.53 181.827 1126.53 163.673C1126.53 145.519 1130.18 129.66 1137.48 116.097C1145 102.534 1155.43 92.1003 1168.78 84.797C1182.14 77.4937 1197.48 73.842 1214.79 73.842C1231.7 73.842 1246.72 77.3893 1259.87 84.484C1273.01 91.5787 1283.24 101.699 1290.54 114.845C1298.05 127.991 1301.81 143.328 1301.81 160.856ZM1247.03 146.771C1247.03 137.59 1243.9 130.286 1237.64 124.861C1231.38 119.436 1223.56 116.723 1214.17 116.723C1205.2 116.723 1197.58 119.331 1191.32 124.548C1185.27 129.765 1181.51 137.172 1180.05 146.771H1247.03ZM1401.1 253.504C1385.86 253.504 1372.3 250.896 1360.41 245.679C1348.51 240.462 1339.12 233.368 1332.24 224.395C1325.35 215.214 1321.49 204.989 1320.65 193.721H1373.55C1374.18 199.772 1376.99 204.676 1382 208.432C1387.01 212.188 1393.17 214.066 1400.47 214.066C1407.15 214.066 1412.26 212.814 1415.81 210.31C1419.56 207.597 1421.44 204.154 1421.44 199.981C1421.44 194.973 1418.83 191.321 1413.62 189.026C1408.4 186.522 1399.95 183.809 1388.26 180.888C1375.74 177.967 1365.31 174.941 1356.96 171.811C1348.62 168.472 1341.42 163.36 1335.37 156.474C1329.31 149.379 1326.29 139.885 1326.29 127.991C1326.29 117.975 1329 108.898 1334.43 100.76C1340.06 92.4133 1348.2 85.8403 1358.84 81.041C1369.69 76.2417 1382.52 73.842 1397.34 73.842C1419.25 73.842 1436.46 79.2673 1448.98 90.118C1461.71 100.969 1469.02 115.367 1470.89 133.312H1421.44C1420.61 127.261 1417.89 122.461 1413.3 118.914C1408.92 115.367 1403.08 113.593 1395.77 113.593C1389.51 113.593 1384.72 114.845 1381.38 117.349C1378.04 119.644 1376.37 122.879 1376.37 127.052C1376.37 132.06 1378.98 135.816 1384.19 138.32C1389.62 140.824 1397.97 143.328 1409.23 145.832C1422.17 149.171 1432.71 152.509 1440.85 155.848C1448.98 158.978 1456.08 164.195 1462.13 171.498C1468.39 178.593 1471.63 188.191 1471.83 200.294C1471.83 210.519 1468.91 219.7 1463.07 227.838C1457.44 235.767 1449.19 242.027 1438.34 246.618C1427.7 251.209 1415.29 253.504 1401.1 253.504Z" fill="#1F1E23"/>
</svg>
